<svg width="22" height="22" viewBox="0 0 22 22" fill="none" xmlns="http://www.w3.org/2000/svg">
<path d="M11 11.5271C10.8778 11.5271 10.7632 11.5082 10.6562 11.4703C10.5493 11.4324 10.45 11.3673 10.3583 11.275L6.14166 7.05835C5.9736 6.89029 5.8856 6.68007 5.87766 6.42768C5.86972 6.17529 5.95772 5.95774 6.14166 5.77501C6.30972 5.60696 6.5236 5.52293 6.78333 5.52293C7.04305 5.52293 7.25694 5.60696 7.42499 5.77501L11 9.3271L14.575 5.77501C14.743 5.60696 14.9533 5.51926 15.2057 5.51193C15.458 5.5046 15.6756 5.59229 15.8583 5.77501C16.0264 5.94307 16.1104 6.15696 16.1104 6.41668C16.1104 6.6764 16.0264 6.89029 15.8583 7.05835L11.6417 11.275C11.55 11.3667 11.4507 11.4318 11.3437 11.4703C11.2368 11.5088 11.1222 11.5277 11 11.5271ZM11 17.0271C10.8778 17.0271 10.7632 17.0082 10.6562 16.9703C10.5493 16.9324 10.45 16.8673 10.3583 16.775L6.14166 12.5583C5.9736 12.3903 5.8856 12.1804 5.87766 11.9286C5.86972 11.6768 5.95772 11.459 6.14166 11.275C6.30972 11.107 6.5236 11.0229 6.78333 11.0229C7.04305 11.0229 7.25694 11.107 7.42499 11.275L11 14.8271L14.575 11.275C14.743 11.107 14.9533 11.019 15.2057 11.011C15.458 11.0031 15.6756 11.0911 15.8583 11.275C16.0264 11.4431 16.1104 11.657 16.1104 11.9167C16.1104 12.1764 16.0264 12.3903 15.8583 12.5583L11.6417 16.775C11.55 16.8667 11.4507 16.9318 11.3437 16.9703C11.2368 17.0088 11.1222 17.0277 11 17.0271Z" fill="#1C768F"/>
</svg>
