<svg width="112" height="112" viewBox="0 0 112 112" fill="none" xmlns="http://www.w3.org/2000/svg">
<path d="M20.657 95.2035L12.796 7H99.204L91.3325 95.1895L55.9475 105L20.657 95.2035Z" fill="#1572B6"/>
<path d="M56 97.503L84.595 89.5755L91.322 14.2135H56V97.503Z" fill="#33A9DC"/>
<path d="M56 46.1685H70.315L71.302 35.091H56V24.2725H83.125L82.866 27.174L80.2095 56.987H56V46.1685Z" fill="white"/>
<path d="M56.0665 74.263L56.0175 74.277L43.9705 71.022L43.2005 62.3945H32.34L33.8555 79.38L56.014 85.533L56.0665 85.519V74.263Z" fill="#EBEBEB"/>
<path d="M69.3945 56.5285L68.0925 71.015L56.028 74.27V85.526L78.204 79.38L78.3685 77.553L80.248 56.5285H69.3945Z" fill="white"/>
<path d="M56.0385 24.2725V35.091H29.9075L29.6905 32.6585L29.197 27.174L28.938 24.2725H56.0385ZM56 46.1685V56.987H44.1035L43.8865 54.5545L43.3965 49.07L43.1375 46.1685H56Z" fill="#EBEBEB"/>
</svg>
