<svg width="112" height="100" viewBox="0 0 112 100" fill="none" xmlns="http://www.w3.org/2000/svg">
<path d="M20.657 85.0031L12.7925 6.25H99.2075L91.3325 84.9906L55.9475 93.75L20.657 85.0031Z" fill="#E44F26"/>
<path d="M56 87.0563L84.595 79.9781L91.322 12.6906H56V87.0563Z" fill="#F1662A"/>
<path d="M56 41.8969H41.685L40.698 32.0063H56V22.3469H28.875L29.134 24.9406L31.7905 51.5562H56V41.8969ZM56 66.9813L55.951 66.9937L43.904 64.0906L43.134 56.3875H32.2735L33.789 71.55L55.951 77.0437L56 77.0312V66.9813Z" fill="#EBEBEB"/>
<path d="M55.9615 41.8969V51.5562H69.2825L68.0295 64.0844L55.9615 66.9906V77.0406L78.141 71.55L78.302 69.9188L80.843 44.4906L81.109 41.8969H55.9615ZM55.9615 22.3469V32.0063H82.0925L82.3095 29.8375L82.803 24.9406L83.062 22.3469H55.9615Z" fill="white"/>
</svg>
