<svg width="114" height="114" viewBox="0 0 114 114" fill="none" xmlns="http://www.w3.org/2000/svg">
<path d="M34.5562 16.9005C32.7679 17.9336 30.8869 20.7765 30.666 26.9895C30.6033 28.3969 29.9874 29.7225 28.9523 30.6781C27.9172 31.6336 26.5466 32.1418 25.1387 32.092C23.7309 32.0422 22.3996 31.4386 21.4346 30.4123C20.4695 29.386 19.9488 28.0201 19.9856 26.6119C20.2564 19.0024 22.6646 11.4285 29.2125 7.64513C35.7817 3.85463 43.5694 5.57888 50.3096 9.16988C51.5606 9.83693 52.4953 10.9736 52.9082 12.3298C53.3211 13.6861 53.1783 15.1508 52.5112 16.4018C51.8442 17.6527 50.7075 18.5875 49.3513 19.0003C47.995 19.4132 46.5303 19.2704 45.2794 18.6034C39.7718 15.6608 36.3517 15.8745 34.5562 16.9005ZM63.2059 26.163C63.7467 25.7157 64.3703 25.3793 65.0411 25.1731C65.7119 24.9668 66.4168 24.8947 67.1155 24.9608C67.8141 25.027 68.4929 25.2302 69.1131 25.5587C69.7333 25.8872 70.2827 26.3347 70.7299 26.8755C74.9042 31.9395 78.6461 37.345 81.9161 43.035C89.3261 55.8742 93.8932 69.027 95.1259 80.0565C95.7386 85.5641 95.5534 90.8081 94.2709 95.304C92.967 99.8284 90.4448 103.925 86.2125 106.369C81.0896 109.326 75.1688 108.913 69.7609 106.939C64.3316 104.958 58.7385 101.218 53.409 96.3514C52.3781 95.3921 51.7675 94.0646 51.71 92.6576C51.6525 91.2506 52.1527 89.8777 53.1018 88.8375C54.051 87.7972 55.3724 87.1737 56.7788 87.1024C58.1852 87.0312 59.5629 87.5179 60.6124 88.4569C65.3149 92.7461 69.7253 95.5534 73.416 96.8929C77.1353 98.2466 79.4723 97.926 80.8688 97.1138C82.0373 96.4369 83.22 95.0618 83.9895 92.3614C84.7733 89.6254 85.0226 85.8776 84.5025 81.2464C83.4694 71.991 79.515 60.249 72.6536 48.3787C69.6846 43.2116 66.2883 38.302 62.5005 33.7013C62.0532 33.1605 61.7168 32.5368 61.5106 31.866C61.3043 31.1952 61.2322 30.4904 61.2983 29.7917C61.3645 29.093 61.5676 28.4142 61.8962 27.794C62.2247 27.1739 62.6721 26.6245 63.213 26.1773L63.2059 26.163Z" fill="white"/>
<path d="M103.312 58.4678C103.312 56.4015 101.788 53.3449 96.5224 50.0603C95.9268 49.6883 95.4104 49.2027 95.0025 48.6312C94.5946 48.0597 94.3033 47.4134 94.1451 46.7293C93.987 46.0452 93.9652 45.3366 94.0809 44.6441C94.1966 43.9515 94.4476 43.2886 94.8195 42.693C95.5706 41.4902 96.7688 40.6351 98.1504 40.3158C98.8346 40.1576 99.5431 40.1358 100.236 40.2515C100.928 40.3672 101.591 40.6182 102.187 40.9901C108.642 45.03 114 50.901 114 58.4678C114 66.0488 108.613 71.934 102.13 75.9739C100.928 76.6952 99.4904 76.9153 98.1275 76.5867C96.7647 76.2581 95.5856 75.4072 94.8444 74.2173C94.1032 73.0274 93.8592 71.5939 94.1651 70.2258C94.471 68.8577 95.3022 67.6647 96.4796 66.9038C101.781 63.5978 103.312 60.534 103.312 58.4678ZM80.9614 78.6457C81.0789 79.3377 81.0589 80.046 80.9026 80.7302C80.7464 81.4144 80.4568 82.0612 80.0506 82.6335C79.6444 83.2058 79.1294 83.6925 78.535 84.0657C77.9406 84.439 77.2786 84.6915 76.5866 84.8089C70.1135 85.8846 63.5619 86.4184 57 86.4049C42.18 86.4049 28.5 83.79 18.3326 79.3369C13.2525 77.121 8.81363 74.3351 5.56463 70.9721C2.28 67.5878 0 63.3484 0 58.4678C0 52.554 3.32025 47.6378 7.73063 43.9328C12.1624 40.2206 18.2044 37.2495 25.08 35.0693C26.4311 34.6403 27.8973 34.7656 29.156 35.4177C29.7792 35.7406 30.3328 36.183 30.785 36.7198C31.2373 37.2566 31.5794 37.8772 31.7917 38.5463C32.0041 39.2153 32.0827 39.9195 32.0229 40.6189C31.9631 41.3183 31.7662 41.999 31.4433 42.6222C31.1204 43.2455 30.678 43.799 30.1412 44.2513C29.6044 44.7035 28.9838 45.0456 28.3148 45.258C22.2585 47.1818 17.613 49.5971 14.6062 52.1265C11.571 54.663 10.6875 56.8504 10.6875 58.4678C10.6875 59.8215 11.2931 61.5315 13.2454 63.5479C15.2261 65.5927 18.3469 67.6804 22.6147 69.5471C31.1434 73.2806 43.2915 75.7174 57 75.7174C63.3056 75.7174 69.3049 75.2044 74.7982 74.271C75.4902 74.1535 76.1985 74.1735 76.8827 74.3297C77.5669 74.486 78.2137 74.7755 78.786 75.1818C79.3583 75.588 79.845 76.103 80.2182 76.6974C80.5915 77.2917 80.844 77.9538 80.9614 78.6457Z" fill="white"/>
<path d="M34.713 97.1137C36.4943 98.1469 39.9071 98.3535 45.3934 95.4394C46.0133 95.11 46.692 94.906 47.3907 94.8389C48.0894 94.7718 48.7945 94.8431 49.4657 95.0485C50.1369 95.2539 50.7611 95.5896 51.3026 96.0362C51.8441 96.4829 52.2923 97.0318 52.6217 97.6517C52.9511 98.2716 53.1551 98.9502 53.2222 99.649C53.2892 100.348 53.218 101.053 53.0126 101.724C52.8071 102.395 52.4715 103.019 52.0249 103.561C51.5782 104.102 51.0293 104.551 50.4094 104.88C43.6834 108.45 35.9171 110.152 29.3693 106.376C22.8 102.579 20.3918 94.9762 20.1424 87.3382C20.1165 85.935 20.6437 84.5779 21.6101 83.5602C22.5764 82.5424 23.9044 81.9457 25.3071 81.8989C26.7098 81.8521 28.0746 82.359 29.1066 83.3101C30.1386 84.2612 30.7551 85.5802 30.8228 86.982C31.0365 93.2164 32.9175 96.0806 34.713 97.1137ZM28.4145 67.6661C27.0862 67.1727 26.0083 66.172 25.4177 64.884C24.8271 63.5959 24.7723 62.1261 25.2653 60.7976C27.417 54.9907 30.2314 48.9915 33.6728 43.035C41.0828 30.1957 50.1885 19.665 59.1233 13.0815C63.5835 9.79687 68.2148 7.33874 72.7534 6.20587C77.3205 5.06587 82.137 5.20124 86.3621 7.64512C91.4921 10.602 94.0856 15.9315 95.0831 21.6101C96.0878 27.303 95.6389 34.0147 94.0856 41.0614C93.96 41.7702 93.6923 42.4464 93.2988 43.0492C92.9054 43.6521 92.3941 44.1692 91.7958 44.5696C91.1975 44.9699 90.5245 45.2453 89.8171 45.3791C89.1098 45.5129 88.3827 45.5024 87.6795 45.3482C86.9763 45.194 86.3115 44.8993 85.725 44.4818C85.1385 44.0643 84.6424 43.5326 84.2665 42.9187C83.8906 42.3047 83.6427 41.6211 83.5375 40.9089C83.4324 40.1967 83.4722 39.4706 83.6546 38.7742C85.0155 32.5612 85.2435 27.3315 84.5595 23.4555C83.8755 19.5652 82.422 17.7056 81.0255 16.9005C79.857 16.2236 78.0686 15.8887 75.3469 16.5727C72.5824 17.2639 69.2194 18.924 65.4645 21.6885C57.969 27.2032 49.7753 36.5085 42.9281 48.3787C39.9318 53.5343 37.3744 58.9327 35.283 64.5169C34.7896 65.8452 33.7889 66.9231 32.5009 67.5137C31.2128 68.1043 29.743 68.1591 28.4145 67.6661Z" fill="white"/>
<path d="M67.4025 57.4702C67.4025 60.0402 66.3816 62.5049 64.5644 64.3221C62.7471 66.1393 60.2824 67.1602 57.7125 67.1602C55.1425 67.1602 52.6779 66.1393 50.8606 64.3221C49.0434 62.5049 48.0225 60.0402 48.0225 57.4702C48.0225 54.9003 49.0434 52.4356 50.8606 50.6184C52.6779 48.8012 55.1425 47.7802 57.7125 47.7802C60.2824 47.7802 62.7471 48.8012 64.5644 50.6184C66.3816 52.4356 67.4025 54.9003 67.4025 57.4702Z" fill="white"/>
</svg>
