<svg width="97" height="97" viewBox="0 0 97 97" fill="none" xmlns="http://www.w3.org/2000/svg">
<path d="M29.4031 14.3802C27.8814 15.2593 26.2809 17.6782 26.093 22.9647C26.0396 24.1622 25.5156 25.2902 24.6348 26.1033C23.7541 26.9163 22.5879 27.3487 21.39 27.3064C20.192 27.264 19.0593 26.7503 18.2382 25.8771C17.4171 25.0039 16.974 23.8417 17.0053 22.6434C17.2357 16.1687 19.2848 9.72424 24.8562 6.50506C30.4459 3.27981 37.0722 4.74693 42.8073 7.80243C43.8717 8.37001 44.6671 9.33718 45.0184 10.4912C45.3697 11.6452 45.2482 12.8915 44.6806 13.9559C44.113 15.0203 43.1459 15.8156 41.9919 16.1669C40.8379 16.5183 39.5916 16.3968 38.5272 15.8292C33.8409 13.3254 30.9309 13.5072 29.4031 14.3802ZM53.7804 22.2615C54.2406 21.8809 54.7712 21.5947 55.342 21.4192C55.9128 21.2437 56.5125 21.1823 57.107 21.2386C57.7015 21.2949 58.2791 21.4678 58.8068 21.7473C59.3344 22.0268 59.8019 22.4075 60.1824 22.8677C63.7343 27.1766 66.9181 31.776 69.7006 36.6175C76.0056 47.5421 79.8916 58.7335 80.9404 68.1182C81.4618 72.8046 81.3042 77.2666 80.2129 81.092C79.1035 84.9417 76.9574 88.4276 73.3563 90.5071C68.9973 93.023 63.9594 92.6714 59.3579 90.9921C54.7383 89.3067 49.9792 86.1239 45.4445 81.9832C44.5673 81.1669 44.0478 80.0374 43.9988 78.8402C43.9499 77.643 44.3755 76.4749 45.1831 75.5898C45.9908 74.7047 47.1151 74.1741 48.3118 74.1135C49.5085 74.0528 50.6807 74.467 51.5737 75.2659C55.5749 78.9156 59.3276 81.3042 62.468 82.4439C65.6326 83.5958 67.6211 83.323 68.8094 82.6319C69.8036 82.0559 70.81 80.8859 71.4647 78.5882C72.1316 76.2602 72.3438 73.0713 71.9012 69.1307C71.0222 61.2555 67.6575 51.2645 61.8193 41.1644C59.293 36.7678 56.4032 32.5903 53.1803 28.6756C52.7997 28.2155 52.5134 27.6848 52.3379 27.1141C52.1624 26.5433 52.1011 25.9435 52.1574 25.3491C52.2137 24.7546 52.3865 24.177 52.666 23.6493C52.9456 23.1216 53.3263 22.6542 53.7865 22.2736L53.7804 22.2615Z" fill="white"/>
<path d="M87.9062 49.7489C87.9062 47.9907 86.6089 45.3899 82.1287 42.5951C81.6219 42.2787 81.1825 41.8655 80.8354 41.3792C80.4884 40.8929 80.2405 40.343 80.1059 39.7609C79.9714 39.1788 79.9528 38.5759 80.0513 37.9866C80.1497 37.3974 80.3633 36.8332 80.6797 36.3265C81.3189 35.3031 82.3384 34.5755 83.514 34.3038C84.0961 34.1692 84.699 34.1506 85.2882 34.2491C85.8775 34.3475 86.4416 34.5611 86.9484 34.8776C92.441 38.315 97 43.3105 97 49.7489C97 56.1994 92.4167 61.207 86.8999 64.6444C85.8771 65.2582 84.6541 65.4455 83.4945 65.1659C82.3349 64.8863 81.3316 64.1622 80.7009 63.1498C80.0703 62.1373 79.8627 60.9176 80.1229 59.7535C80.3832 58.5895 81.0905 57.5743 82.0923 56.9269C86.6028 54.1139 87.9062 51.507 87.9062 49.7489ZM68.8882 66.9179C68.9882 67.5066 68.9712 68.1093 68.8382 68.6915C68.7052 69.2737 68.4589 69.824 68.1132 70.3109C67.7676 70.7979 67.3294 71.212 66.8236 71.5296C66.3179 71.8472 65.7546 72.0621 65.1658 72.1619C59.658 73.0772 54.0834 73.5315 48.5 73.5199C35.89 73.5199 24.25 71.295 15.5988 67.5059C11.2762 65.6205 7.49931 63.2501 4.73481 60.3886C1.94 57.5089 0 53.9017 0 49.7489C0 44.717 2.82513 40.5339 6.57781 37.3814C10.3487 34.2228 15.4897 31.6947 21.34 29.8396C22.4896 29.4746 23.7372 29.5813 24.8082 30.1361C25.3385 30.4108 25.8095 30.7873 26.1943 31.2441C26.5791 31.7008 26.8702 32.2289 27.0509 32.7981C27.2316 33.3674 27.2984 33.9666 27.2476 34.5617C27.1967 35.1568 27.0291 35.736 26.7544 36.2663C26.4797 36.7966 26.1032 37.2676 25.6464 37.6524C25.1897 38.0372 24.6616 38.3283 24.0924 38.509C18.9392 40.1459 14.9865 42.2011 12.4281 44.3532C9.8455 46.5115 9.09375 48.3727 9.09375 49.7489C9.09375 50.9007 9.60906 52.3557 11.2702 54.0714C12.9556 55.8114 15.6109 57.5877 19.2424 59.1761C26.4992 62.3528 36.8357 64.4262 48.5 64.4262C53.8653 64.4262 58.9699 63.9897 63.6441 63.1955C64.2329 63.0955 64.8356 63.1125 65.4177 63.2455C65.9999 63.3784 66.5502 63.6248 67.0372 63.9704C67.5242 64.3161 67.9383 64.7543 68.2559 65.26C68.5735 65.7658 68.7883 66.3291 68.8882 66.9179Z" fill="white"/>
<path d="M29.5365 82.6319C31.0521 83.5109 33.9561 83.6867 38.6242 81.2072C39.1516 80.9269 39.7291 80.7533 40.3236 80.6963C40.9182 80.6392 41.5181 80.6998 42.0892 80.8746C42.6604 81.0494 43.1915 81.335 43.6522 81.715C44.113 82.0951 44.4943 82.5621 44.7746 83.0896C45.0548 83.617 45.2284 84.1945 45.2855 84.789C45.3426 85.3836 45.282 85.9835 45.1072 86.5547C44.9324 87.1258 44.6468 87.6569 44.2668 88.1176C43.8867 88.5784 43.4196 88.9598 42.8922 89.24C37.1692 92.2773 30.5611 93.7262 24.9896 90.5131C19.4 87.2818 17.3509 80.8131 17.1387 74.3141C17.1167 73.1201 17.5652 71.9654 18.3875 71.0994C19.2097 70.2334 20.3397 69.7257 21.5332 69.6859C22.7267 69.6461 23.888 70.0774 24.7661 70.8867C25.6443 71.696 26.1688 72.8182 26.2264 74.011C26.4082 79.3157 28.0087 81.7528 29.5365 82.6319ZM24.1772 57.5756C23.047 57.1558 22.1298 56.3042 21.6273 55.2083C21.1248 54.1123 21.0782 52.8617 21.4976 51.7313C23.3285 46.7904 25.7232 41.6857 28.6514 36.6175C34.9564 25.6929 42.7042 16.7325 50.3066 11.1307C54.1017 8.33593 58.0424 6.24437 61.9042 5.28043C65.7902 4.31043 69.8885 4.42562 73.4836 6.50506C77.8486 9.021 80.0553 13.5557 80.9041 18.3876C81.7589 23.2315 81.3769 28.9424 80.0553 34.9382C79.9484 35.5413 79.7206 36.1166 79.3858 36.6296C79.051 37.1425 78.616 37.5826 78.107 37.9232C77.5979 38.2639 77.0252 38.4982 76.4233 38.612C75.8214 38.7259 75.2028 38.7169 74.6044 38.5857C74.0061 38.4545 73.4404 38.2038 72.9414 37.8486C72.4424 37.4933 72.0203 37.0409 71.7005 36.5185C71.3806 35.9961 71.1696 35.4144 71.0801 34.8085C70.9907 34.2025 71.0246 33.5847 71.1798 32.9921C72.3377 27.7056 72.5317 23.2557 71.9497 19.9577C71.3677 16.6476 70.131 15.0653 68.9427 14.3802C67.9485 13.8043 66.4268 13.5194 64.1109 14.1014C61.7587 14.6894 58.8972 16.102 55.7022 18.4542C49.3245 23.1466 42.3526 31.0642 36.5266 41.1644C33.977 45.5511 31.801 50.1445 30.0215 54.8959C29.6017 56.0262 28.7502 56.9434 27.6542 57.4459C26.5583 57.9484 25.3076 57.995 24.1772 57.5756Z" fill="white"/>
<path d="M57.3513 48.9001C57.3513 51.0868 56.4826 53.184 54.9364 54.7302C53.3901 56.2765 51.293 57.1451 49.1063 57.1451C46.9196 57.1451 44.8224 56.2765 43.2762 54.7302C41.7299 53.184 40.8613 51.0868 40.8613 48.9001C40.8613 46.7134 41.7299 44.6163 43.2762 43.07C44.8224 41.5238 46.9196 40.6551 49.1063 40.6551C51.293 40.6551 53.3901 41.5238 54.9364 43.07C56.4826 44.6163 57.3513 46.7134 57.3513 48.9001Z" fill="white"/>
</svg>
